<svg xmlns="http://www.w3.org/2000/svg" viewBox="38 38 136 124">
  <defs>
    <linearGradient id="g" x1="0" y1="0" x2="1" y2="1">
      <stop offset="0%" stop-color="#E11D48"/>
      <stop offset="100%" stop-color="#7C3AED"/>
    </linearGradient>
  </defs>
  <path d="M50,40 L140,40 Q155,40 155,55 L155,100 L125,100 L125,130 L95,130 L95,160 L55,160 Q40,160 40,145 L40,55 Q40,40 55,40 Z" fill="url(#g)"/>
  <rect x="130" y="104" width="20" height="20" rx="3" fill="#A78BFA" opacity="0.85"/>
  <rect x="156" y="96" width="16" height="16" rx="3" fill="#C4B5FD" opacity="0.70"/>
  <rect x="100" y="136" width="18" height="18" rx="3" fill="#C4B5FD" opacity="0.75"/>
  <rect x="130" y="132" width="14" height="14" rx="3" fill="#A78BFA" opacity="0.60"/>
  <rect x="154" y="122" width="12" height="12" rx="3" fill="#C4B5FD" opacity="0.50"/>
  <rect x="148" y="150" width="10" height="10" rx="2" fill="#A78BFA" opacity="0.40"/>
</svg>
